<svg id="Layer_1" data-name="Layer 1" xmlns="http://www.w3.org/2000/svg" viewBox="0 0 640 360"><path d="M374.41,181.29a52.42,52.42,0,1,1-.56-8.16,51.81,51.81,0,0,1,.56,8.16m-69-37.9a40.89,40.89,0,1,0,6.91-2.33,40.9,40.9,0,0,0-6.91,2.33c-1.22.54.88-.4,0,0" style="fill:#fff"/><path d="M379.9,180A59.9,59.9,0,1,1,320,120.1h0A59.89,59.89,0,0,1,379.9,180h0" style="fill:#f2dde1"/><circle cx="320.01" cy="179.99" r="59.9" style="fill:#f0ecec;stroke:#f9f8f8;stroke-miterlimit:9.99999979168664;stroke-width:0.344043696186694px"/><path d="M368.47,180A48.47,48.47,0,1,1,320,131.54h0A48.46,48.46,0,0,1,368.47,180" style="fill:#c64751"/><circle cx="320" cy="179.99" r="48.46" transform="translate(-33.55 279) rotate(-45)" style="fill:#b5a6a9;stroke:#ccc;stroke-miterlimit:10;stroke-width:2.46002279013386px"/><path d="M364.66,180.19A44.65,44.65,0,1,1,320,135.55h0a44.63,44.63,0,0,1,44.63,44.64" style="fill:#b5a6a9"/><circle cx="320.01" cy="180.13" r="41.63" transform="translate(-33.64 279.04) rotate(-45)" style="fill:#f7ebed;stroke:#ccc;stroke-miterlimit:10;stroke-width:1.34183061280029px"/><line x1="368.79" y1="205.38" x2="366.29" y2="206.57" style="fill:#ccc"/><line x1="357.77" y1="187.14" x2="359.13" y2="186.49" style="fill:#ccc"/><path d="M343.58,186a20.89,20.89,0,1,0-34.26-7.26l-3.15,3.15a2.69,2.69,0,0,0,0,3.8l1,1-15.66,15.65a4.29,4.29,0,0,0,0,6.06l0,0a4.29,4.29,0,0,0,6.06,0l15.65-15.66,1.05,1a2.69,2.69,0,0,0,3.8,0l3.15-3.15A20.88,20.88,0,0,0,343.58,186Zm-26-3.58a15.83,15.83,0,1,1,22.39,0A15.82,15.82,0,0,1,317.62,182.38Z" style="fill:#b77378"/><path d="M329.09,176.49h-.83a1,1,0,0,0-1.05,1v1.14a1,1,0,0,0,1.05,1h.83a1,1,0,0,0,1.05-1v-1.14A1,1,0,0,0,329.09,176.49Z" style="fill:#b77378"/><path d="M323.27,167.66l1.52.19a1.07,1.07,0,0,0,1.12-.67,3.29,3.29,0,0,1,.91-1.36,3.16,3.16,0,0,1,2.07-.7,3,3,0,0,1,2.05.67,2.11,2.11,0,0,1,.75,1.62,2,2,0,0,1-.42,1.24,15.42,15.42,0,0,1-1.7,1.51,7.19,7.19,0,0,0-1.9,2.08,4.82,4.82,0,0,0-.46,2,1,1,0,0,0,1.05,1.1h.86a1.06,1.06,0,0,0,1.05-1,2.8,2.8,0,0,1,.2-.89,5.07,5.07,0,0,1,1.28-1.37,13.24,13.24,0,0,0,2.59-2.6,3.7,3.7,0,0,0,.61-2,4.44,4.44,0,0,0-1.65-3.4,6.47,6.47,0,0,0-4.44-1.46,6.25,6.25,0,0,0-4.29,1.44,5,5,0,0,0-1.69,2.91A.56.56,0,0,0,323.27,167.66Z" style="fill:#b77378"/></svg>